<svg xmlns:mydata="http://www.w3.org/2000/svg" mydata:contrastcolor="373A36" mydata:template="Default" mydata:presentation="2.5" mydata:layouttype="undefined" mydata:specialfontid="undefined" mydata:id1="194" mydata:id2="058" mydata:companyname="Judi Chain" mydata:companytagline="" version="1.1" xmlns="http://www.w3.org/2000/svg" xmlns:xlink="http://www.w3.org/1999/xlink" viewBox="0 0 550 470"><g fill="#db864e" fill-rule="evenodd" stroke="none" stroke-width="1" stroke-linecap="butt" stroke-linejoin="miter" stroke-miterlimit="10" stroke-dasharray="" stroke-dashoffset="0" font-family="none" font-weight="none" font-size="none" text-anchor="none" style="mix-blend-mode: normal"><g data-paper-data="{&quot;isGlobalGroup&quot;:true}"><path d="M161.57319,351.09064c0,2.15875 1.74983,3.90936 3.90936,3.90936h219.03491c2.15953,0 3.90936,-1.75061 3.90936,-3.90936v-232.18129c0,-2.15906 -1.74983,-3.90936 -3.90936,-3.90936h-219.03491c-2.15953,0 -3.90936,1.7503 -3.90936,3.90936zM187.74867,216.73784l43.62528,75.56236h30.32721v-20.70394h11.63659v-8.31207h-11.63659v-26.59847h11.63659v-8.31129h-11.63659v-26.59847h11.63659v-8.31129h-11.63659v-26.59769h10.34963l-9.68504,-6.64981h-12.89774l-9.57401,6.64981h10.17058v26.59769h-26.59769v-26.59769h11.74136l9.57323,-6.64981h-3.02897v-19.04169h-10.37856zM263.36341,155.23039h-14.9611v-14.05491h14.9611zM362.25133,216.73784l-43.62528,75.56236h-30.32721v-20.70394h-11.63659v-8.31207h11.63659v-26.59847h-11.63659v-8.31129h11.63659v-11.23314l19.92833,19.54443h-8.29174v26.59847h26.59769v-26.59847h-14.4826l-23.75168,-23.36622v-11.54354h-11.63659v-8.31129h11.63659v-26.59769h-11.52322l-9.68504,-6.64981h2.92263v-19.04169h48.61283zM285.71789,324.43744c0.6169,-0.91401 1.11104,-1.93513 1.48321,-3.06259c0.043,-0.1165 0.06099,-0.24473 0.05629,-0.38233c-0.00547,-0.13839 -0.10946,-0.20798 -0.31118,-0.20798h-0.67006c-0.13839,0 -0.22909,0.03518 -0.27131,0.10399c-0.04222,0.0688 -0.0907,0.16185 -0.14386,0.27913c-0.30806,0.82957 -0.70916,1.62942 -1.20408,2.40113c-0.49414,0.77092 -1.09227,1.45428 -1.79439,2.04928c-0.70212,0.59579 -1.51057,1.07429 -2.42458,1.43552c-0.91479,0.36201 -1.93591,0.54262 -3.06259,0.54262c-1.39329,0 -2.6482,-0.28147 -3.76471,-0.8452c-1.11651,-0.56373 -2.06883,-1.33231 -2.85539,-2.30496c-0.78734,-0.97343 -1.39329,-2.11105 -1.81863,-3.41365c-0.42534,-1.30338 -0.63801,-2.69902 -0.63801,-4.1877c0,-1.54185 0.23143,-2.94531 0.69352,-4.21116c0.46287,-1.26585 1.10087,-2.3503 1.9148,-3.25415c0.81315,-0.90384 1.77328,-1.60284 2.87885,-2.09776c1.10635,-0.49414 2.30261,-0.742 3.58957,-0.742c1.19079,0 2.22208,0.15168 3.09465,0.45505c0.87179,0.30337 1.62395,0.70212 2.25648,1.19626c0.63332,0.49492 1.16733,1.05787 1.60362,1.69119c0.43628,0.63253 0.80845,1.28383 1.11651,1.9539c0.06359,0.13813 0.12744,0.23378 0.19156,0.28695c0.06333,0.05317 0.16967,0.07975 0.319,0.07975h0.5262c0.18061,0 0.27913,-0.07193 0.29555,-0.21501c0.01564,-0.14386 -0.01329,-0.30571 -0.08835,-0.48711c-0.37217,-0.92495 -0.83738,-1.76234 -1.39564,-2.51215c-0.55826,-0.74981 -1.22285,-1.39017 -1.99377,-1.92184c-0.77092,-0.53167 -1.64818,-0.94372 -2.63178,-1.23614c-0.98438,-0.29242 -2.08212,-0.43863 -3.29402,-0.43863c-1.61691,0 -3.07119,0.29711 -4.36284,0.8929c-1.29243,0.59579 -2.38783,1.41988 -3.2862,2.47228c-0.89837,1.05318 -1.59033,2.29479 -2.07352,3.72483c-0.48398,1.43082 -0.72636,2.97502 -0.72636,4.63415c0,1.01018 0.10112,1.99924 0.30337,2.9672c0.20172,0.96717 0.50274,1.88509 0.9015,2.7514c0.39875,0.86709 0.8929,1.66695 1.48321,2.40113c0.59031,0.7334 1.27367,1.36593 2.05007,1.8976c0.7764,0.53167 1.64037,0.94685 2.5919,1.24474c0.95154,0.29789 1.99143,0.44645 3.11888,0.44645c1.2119,0 2.33623,-0.17827 3.37377,-0.53402c1.03676,-0.35653 1.96953,-0.85928 2.7991,-1.50745c0.82957,-0.64895 1.5528,-1.43082 2.16969,-2.34561zM201.4838,322.20442c0.01016,1.04145 -0.17279,1.97188 -0.54966,2.79206c-0.37608,0.8194 -0.88664,1.51292 -1.5309,2.08056c-0.64426,0.56686 -1.38704,1.00001 -2.22755,1.29869c-0.84051,0.29946 -1.71933,0.44879 -2.63725,0.44879c-0.94841,0 -1.83505,-0.15481 -2.65993,-0.46365c-0.82487,-0.30962 -1.5442,-0.75294 -2.15796,-1.33074c-0.61377,-0.57702 -1.0954,-1.27367 -1.44646,-2.0876c-0.35028,-0.81471 -0.52542,-1.73263 -0.52542,-2.75375c0,-0.22674 0.07741,-0.40735 0.23143,-0.54105c0.15481,-0.13448 0.33542,-0.20094 0.54184,-0.20094h2.04147c0.22674,0 0.39954,0.07219 0.51838,0.21658c0.11806,0.14386 0.17748,0.31979 0.17748,0.52542c0,0.61872 0.10321,1.14727 0.30962,1.58563c0.20641,0.43863 0.46912,0.79438 0.78891,1.06725c0.31979,0.27287 0.67241,0.47147 1.05944,0.59579c0.38703,0.12354 0.76076,0.1853 1.1212,0.1853c0.34037,0 0.70916,-0.06177 1.10635,-0.1853c0.39667,-0.12406 0.76519,-0.32005 1.10557,-0.58797c0.34011,-0.26818 0.62628,-0.60595 0.85849,-1.0133c0.23222,-0.40735 0.35341,-0.89993 0.36357,-1.47695l0.17045,-15.97753c0,-0.17592 0.06959,-0.32995 0.20876,-0.46443c0.13917,-0.1337 0.31197,-0.20094 0.5176,-0.20094h1.73263c0.19599,0 0.36357,0.06698 0.50274,0.20094c0.13917,0.13448 0.20876,0.28851 0.20876,0.46443zM208.02649,319.71416c0.0099,0.86631 0.14386,1.66043 0.40188,2.38236c0.25802,0.72167 0.63175,1.34247 1.1212,1.8632c0.49023,0.52073 1.0954,0.92808 1.81785,1.22206c0.72167,0.29398 1.55671,0.44098 2.50511,0.44098c0.94919,0 1.78188,-0.14699 2.49808,-0.44098c0.71698,-0.29398 1.31745,-0.70838 1.80221,-1.24474c0.48476,-0.53636 0.85302,-1.17828 1.10557,-1.92575c0.25254,-0.74747 0.38468,-1.57547 0.39484,-2.48244l0.16967,-13.14716c0,-0.17592 0.06959,-0.32995 0.20876,-0.46443c0.13917,-0.1337 0.31197,-0.20094 0.51838,-0.20094h1.73263c0.19599,0 0.36357,0.06698 0.50274,0.20094c0.13917,0.13448 0.20876,0.28851 0.20876,0.46443l0.13917,13.2707c0.02033,1.3714 -0.17045,2.61927 -0.57233,3.74282c-0.40188,1.12433 -1.00001,2.08838 -1.79439,2.89292c-0.7936,0.80376 -1.77094,1.4277 -2.93123,1.87102c-1.15951,0.44332 -2.48713,0.66537 -3.98285,0.66537c-1.48477,0 -2.80692,-0.22205 -3.96721,-0.66537c-1.1603,-0.44332 -2.1392,-1.0696 -2.93905,-1.87884c-0.79907,-0.81002 -1.40424,-1.78188 -1.81707,-2.9156c-0.41231,-1.13423 -0.6083,-2.39226 -0.58797,-3.77409l0.13917,-13.20893c0,-0.17592 0.06959,-0.32995 0.20876,-0.46443c0.13917,-0.1337 0.31197,-0.20094 0.51838,-0.20094h1.73263c0.19599,0 0.36357,0.06698 0.50274,0.20094c0.13917,0.13448 0.20876,0.28851 0.20876,0.46443zM240.61566,306.66786c-1.19626,-0.63488 -2.58252,-0.95154 -4.16034,-0.95154h-9.09472c-0.20641,0 -0.37921,0.06698 -0.51838,0.20094c-0.13917,0.13448 -0.20876,0.28851 -0.20876,0.46443l-0.23222,21.46861c0,0.19547 0.06724,0.35028 0.20094,0.46365c0.13448,0.11337 0.27835,0.17045 0.43316,0.17045h9.57479c1.09306,0 2.0829,-0.14699 2.96955,-0.44098c0.88664,-0.29398 1.6779,-0.69613 2.37376,-1.20643c0.69639,-0.5103 1.29973,-1.1186 1.81003,-1.82489c0.51056,-0.70681 0.93043,-1.46992 1.26038,-2.28932c0.32995,-0.82018 0.57468,-1.68571 0.73496,-2.59894c0.1595,-0.91244 0.24003,-1.83271 0.24003,-2.76079c0,-1.54654 -0.2012,-3.02115 -0.6036,-4.42383c-0.40188,-1.40189 -1.00001,-2.6396 -1.79439,-3.71154c-0.79386,-1.07273 -1.78892,-1.92601 -2.98518,-2.55985zM249.64861,327.85031l0.23222,-21.46861c0,-0.17592 0.06959,-0.32995 0.20876,-0.46443c0.13917,-0.13396 0.31197,-0.20094 0.51838,-0.20094h1.73184c0.19625,0 0.36357,0.06724 0.50274,0.20094c0.13917,0.13448 0.20876,0.28851 0.20876,0.46443l0.23222,21.46861c0,0.19547 -0.06724,0.35028 -0.20094,0.46365c-0.13448,0.11337 -0.27835,0.17045 -0.43316,0.17045h-2.36672c-0.15481,0 -0.29867,-0.05708 -0.43316,-0.17045c-0.1337,-0.11337 -0.20094,-0.26818 -0.20094,-0.46365zM308.85111,328.07393c0,0.08366 -0.02893,0.17358 -0.08679,0.26818c-0.05786,0.09461 -0.16576,0.1423 -0.32369,0.1423h-0.55278c-0.15794,0 -0.26584,-0.04769 -0.32369,-0.1423c-0.05786,-0.09461 -0.08679,-0.18452 -0.08679,-0.26818l0.04769,-10.89459c0,-0.13683 -0.02111,-0.22674 -0.06333,-0.26818c-0.04222,-0.04222 -0.13135,-0.06333 -0.26896,-0.06333h-13.46773c-0.13683,0 -0.22596,0.02111 -0.26818,0.06333c-0.04222,0.04144 -0.06333,0.13135 -0.06333,0.26818l0.04691,10.89459c0,0.08366 -0.02893,0.17358 -0.08679,0.26818c-0.05786,0.09461 -0.16576,0.1423 -0.32369,0.1423h-0.552c-0.15794,0 -0.26584,-0.04769 -0.32369,-0.1423c-0.05786,-0.09461 -0.08679,-0.18452 -0.08679,-0.26818l0.11024,-22.01045c0,-0.10477 0.01798,-0.18921 0.05551,-0.25254c0.03675,-0.06333 0.11259,-0.09461 0.22831,-0.09461h0.58484c0.18921,0 0.28382,0.11572 0.28382,0.34715l0.04769,9.2683c0,0.09461 0.01798,0.17123 0.05473,0.22909c0.03701,0.05786 0.11858,0.08679 0.24473,0.08679h13.54748c0.21032,0 0.31588,-0.10555 0.31588,-0.31588l0.04691,-9.2683c0,-0.23143 0.08992,-0.34715 0.26896,-0.34715h0.63097c0.16888,0 0.25333,0.11572 0.25333,0.34715zM332.39011,328.33273c0.03206,-0.11024 0.02111,-0.22362 -0.03127,-0.33933l-8.85703,-22.10349c-0.02111,-0.04222 -0.05239,-0.08131 -0.09461,-0.11806c-0.04222,-0.03701 -0.10008,-0.05551 -0.17358,-0.05551h-0.63175c-0.0735,0 -0.13135,0.01876 -0.17358,0.05551c-0.04222,0.03675 -0.07428,0.07584 -0.09461,0.11806l-8.95242,22.10349c-0.03127,0.08444 -0.04222,0.18687 -0.03127,0.30806c0.01016,0.12119 0.08913,0.18139 0.23691,0.18139h0.72636c0.17827,0 0.3104,-0.12119 0.39406,-0.36279l2.79519,-7.07359c0.05239,-0.12588 0.12354,-0.21267 0.21267,-0.26036c0.08992,-0.04769 0.19234,-0.07115 0.30806,-0.07115h9.72569c0.14699,0 0.2601,0.02632 0.33933,0.07897c0.07871,0.05265 0.14439,0.14751 0.19703,0.2846l2.76313,7.04153c0.05239,0.11572 0.10555,0.20485 0.15794,0.26818c0.05239,0.06333 0.13683,0.09461 0.25254,0.09461h0.69508c0.12588,0.01016 0.20485,-0.03909 0.23613,-0.15012zM337.72169,328.07393l0.11024,-22.01045c0,-0.23143 0.08913,-0.34715 0.26818,-0.34715h0.63175c0.1681,0 0.25254,0.11572 0.25254,0.34715l0.11103,22.01045c0,0.08366 -0.02893,0.17358 -0.08757,0.26818c-0.05786,0.09461 -0.16576,0.1423 -0.32369,0.1423h-0.552c-0.15794,0 -0.26584,-0.04769 -0.32369,-0.1423c-0.05786,-0.09461 -0.08679,-0.18452 -0.08679,-0.26818zM362.16454,328.34211c0.05786,-0.09461 0.08679,-0.18452 0.08679,-0.26818l-0.11024,-22.01045c0,-0.23143 -0.08444,-0.34715 -0.25254,-0.34715h-0.63175c-0.17905,0 -0.26818,0.11572 -0.26818,0.34715l-0.11103,19.87907c0,0.09461 -0.03675,0.15481 -0.11024,0.18139c-0.0735,0.0258 -0.13683,0.00235 -0.18921,-0.07115l-13.34185,-20.13161c-0.10555,-0.13683 -0.24238,-0.20485 -0.41048,-0.20485h-0.93199c-0.17905,0 -0.26818,0.11572 -0.26818,0.34715l-0.11024,22.01045c0,0.08366 0.02893,0.17358 0.08679,0.26818c0.05786,0.09461 0.16576,0.1423 0.32369,0.1423h0.552c0.15794,0 0.26584,-0.04769 0.32369,-0.1423c0.05864,-0.09461 0.08757,-0.18452 0.08757,-0.26818l-0.09539,-20.27313c0,-0.08444 0.03675,-0.13448 0.11103,-0.15012c0.0735,-0.01564 0.13135,0.00782 0.17358,0.07115l13.42082,20.55695c0.04222,0.05317 0.09226,0.10008 0.15012,0.1423c0.05786,0.04222 0.14465,0.06333 0.26036,0.06333h0.93121c0.15794,0 0.26584,-0.04769 0.32369,-0.1423zM323.17029,307.86334l4.32609,11.06738c0.04144,0.14777 0.05004,0.27913 0.02346,0.39484c-0.02658,0.11572 -0.13448,0.17358 -0.32369,0.17358h-8.58885c-0.33699,0 -0.43707,-0.18921 -0.30024,-0.56842l4.35815,-11.06738c0.04144,-0.11572 0.12354,-0.18139 0.24473,-0.19703c0.12041,-0.01564 0.2072,0.05004 0.26036,0.19703zM238.52806,324.68686c-0.54653,0.21189 -1.1603,0.31744 -1.84131,0.31744h-6.1244c-0.14465,0 -0.27365,-0.04926 -0.38703,-0.14699c-0.11337,-0.09773 -0.17045,-0.22987 -0.17045,-0.39484l-0.16967,-14.97205c0,-0.16497 0.04848,-0.3018 0.14699,-0.4097c0.09799,-0.10842 0.22935,-0.16784 0.39406,-0.17827h6.35739c0.75294,0 1.41753,0.13448 1.99533,0.40188c0.57702,0.26818 1.07742,0.62393 1.50041,1.06725c0.42221,0.4441 0.77327,0.95388 1.05162,1.53169c0.27835,0.57754 0.50248,1.18063 0.67241,1.80925c0.17045,0.62941 0.29164,1.25803 0.36357,1.88744c0.07271,0.62862 0.10868,1.2119 0.10868,1.74748c0,0.59813 -0.04691,1.20174 -0.13917,1.81003c-0.09304,0.6083 -0.24003,1.19626 -0.44098,1.76312c-0.20094,0.56764 -0.45349,1.09853 -0.75763,1.59345c-0.30415,0.49492 -0.67085,0.92808 -1.09853,1.29869c-0.42768,0.37139 -0.91479,0.66303 -1.46132,0.87413z" data-paper-data="{&quot;isLogoContainer&quot;:true}"></path></g></g></svg>